<svg xmlns="http://www.w3.org/2000/svg" width="69.67" height="59" viewBox="0 0 209 177">
<g>
<g>
<g>
<g>
</g></g><g><g><g>
<path d="M201.804 33.696a26.33 26.33 0 0 0-23.512-16.288c-2.62 6.686-2.24 15.91 1.104 24.618 3.647 9.496 10.373 17.062 17.326 19.773 6.819-7.336 9.16-18.262 5.082-28.103z"/></g>
<g>
<path fill="#ffce07" d="M174.178 70.16c5.694 0 10.182-.663 13.338-1.97a26.437 26.437 0 0 0 4.927-2.686c-7.405-3.834-14.053-11.74-17.853-21.632-3.488-9.083-4.114-18.472-1.876-26.058a26.522 26.522 0 0 0-5.405 1.593c-4.121 1.708-8.847 5.374-13.417 10.304-.132 6.572 1.154 13.538 3.777 20.372 3.069 7.99 7.716 14.98 13.187 20.001"/>
</g><g>
<path d="M163.146 69.462c-4.203-4.94-7.749-10.936-10.283-17.534-2.08-5.421-3.388-10.937-3.892-16.328-.423.56-.843 1.13-1.258 1.71-6.168 8.614-9.85 17.112-9.85 22.734 0 2.47 2.558 3.858 4.787 4.792 2.137.894 5.103 1.79 8.579 2.589 3.8.874 7.896 1.567 11.917 2.037"/></g><g>
<path d="M189.637 22.377c1.025-1.754 2.312-3.272 3.97-4.49 1.802-1.325 2.514-1.304 4.06.246.87.87 2.7 1.281 3.506.787.806-.492 1.176-2.02.94-3.275-.472-2.507-5.24-4.554-7.39-2.1-1.884 2.148-3.788 4.279-5.652 6.444-.51.592-.936 1.254-1.301 1.776z"/></g><g>
<path d="M195.751 30.806c1.026-1.754 2.313-3.272 3.971-4.49 1.802-1.325 2.514-1.304 4.06.246.87.87 2.7 1.282 3.506.788.806-.493 1.175-2.02.94-3.275-.472-2.508-5.24-4.555-7.39-2.1-1.884 2.148-3.788 4.278-5.651 6.443-.51.593-.937 1.254-1.302 1.777z"/></g><g>
<path fill="#4ac2e2" d="M147.144 22.377c1.926 0 3.92-.203 5.929-.6.999-.2 3.113-.748 5.225-1.414 4.073-1.285 4.719-1.927 5.029-2.236.584-.582.72-1.477.335-2.206-.24-.456-.45-.88-.654-1.29-.443-.89-.86-1.73-1.503-2.76-1.148-1.84-2.238-3.197-3.763-4.685-1.886-1.84-3.7-3.484-6.809-4.977C148.011.805 144.458 0 141.183 0c-5.122 0-9.148 1.92-11.046 5.27-1.823 3.215-1.094 6.958 2.164 11.121 1.977 2.526 5.999 4.497 8.9 5.26 1.833.481 3.832.725 5.943.726z"/></g><g>
<path fill="#4ac2e2" d="M143.853 36.403a18.346 18.346 0 0 0 2.264-2.776c.341-.509 1.007-1.64 1.62-2.822 1.186-2.277 1.188-2.825 1.188-3.088 0-.496-.32-.934-.795-1.08-.296-.092-.566-.183-.826-.27-.567-.19-1.101-.37-1.812-.535a14.088 14.088 0 0 0-3.592-.391c-1.584.019-3.054.091-5.01.778-1.84.645-3.692 1.814-5.085 3.206-2.177 2.177-3.072 4.705-2.455 6.935.592 2.143 2.492 3.424 5.648 3.809 1.914.233 4.461-.64 6.019-1.548a14.077 14.077 0 0 0 2.835-2.217z"/></g></g><g><g>
<path d="M10.406 85.501h8.696c2.825 0 4.93.658 6.318 1.97 1.387 1.314 2.082 3.16 2.082 5.537 0 2.429-.695 4.324-2.082 5.686-1.388 1.364-3.493 2.044-6.318 2.044h-8.696zm28.882 43.928l-12.902-21.704c3.915-1.04 6.863-2.936 8.846-5.686 1.981-2.75 2.972-5.834 2.972-9.253 0-2.974-.705-5.661-2.117-8.065-1.413-2.404-3.53-4.31-6.355-5.723-2.826-1.413-6.244-2.119-10.258-2.119H0v52.55h10.406v-20.886h4.906l11.825 20.886z"/></g><g>
<path d="M51.175 105.715c.374-2.619 1.39-4.665 3.052-6.14 1.66-1.472 3.706-2.209 6.139-2.209 2.57 0 4.746.761 6.524 2.28 1.778 1.52 2.69 3.544 2.737 6.069zm28.345 6.595c.185-1.123.28-2.386.28-3.789 0-3.788-.807-7.144-2.42-10.067-1.614-2.923-3.883-5.18-6.806-6.77-2.924-1.59-6.233-2.386-9.928-2.386-3.836 0-7.227.819-10.173 2.455-2.946 1.638-5.239 3.976-6.876 7.016-1.637 3.042-2.456 6.573-2.456 10.594 0 3.976.83 7.484 2.49 10.524 1.661 3.042 3.977 5.392 6.947 7.052 2.97 1.66 6.325 2.49 10.068 2.49 4.631 0 8.535-1.203 11.717-3.613 3.18-2.408 5.332-5.483 6.454-9.226H68.224c-1.544 3.134-4.14 4.7-7.788 4.7-2.526 0-4.655-.794-6.384-2.385-1.732-1.59-2.714-3.788-2.947-6.595H79.52z"/></g><g>
<path d="M113.616 103.225c.935 1.708 1.404 3.753 1.404 6.138 0 2.386-.469 4.433-1.404 6.14-.936 1.707-2.2 3.016-3.789 3.928a10.116 10.116 0 0 1-5.121 1.369c-1.778 0-3.45-.467-5.017-1.404-1.567-.935-2.83-2.28-3.788-4.034-.96-1.754-1.439-3.799-1.439-6.14 0-2.337.48-4.36 1.44-6.067.957-1.708 2.209-3.006 3.752-3.895 1.544-.888 3.228-1.333 5.052-1.333 1.823 0 3.53.456 5.121 1.37 1.59.91 2.853 2.22 3.79 3.928zm-29.187 5.998c0 3.976.783 7.497 2.351 10.559 1.567 3.064 3.706 5.437 6.42 7.122 2.712 1.684 5.706 2.525 8.98 2.525 2.9 0 5.448-.585 7.647-1.754 2.198-1.168 3.905-2.712 5.122-4.63l.07 6.384h9.893V76.88h-9.963v18.453c-1.358-1.824-3.181-3.286-5.473-4.385a16.525 16.525 0 0 0-7.226-1.65c-3.32 0-6.338.82-9.05 2.456-2.714 1.638-4.853 3.976-6.42 7.017-1.568 3.04-2.351 6.524-2.351 10.453z"/></g><g><path d="M171.708 89.93l-24.065 57.25H137.19l8.42-19.365-15.577-37.886h11.015l10.034 27.152 10.173-27.152z"/></g></g></g></g></g></svg>
