<svg xmlns="http://www.w3.org/2000/svg" width="28" height="16" viewBox="0 0 28 16"><g><g><path d="M14.105 15.455c.503-.029.98-.231 1.35-.572l10.469-9.596a2.181 2.181 0 1 0-2.945-3.217l-8.996 8.247-8.997-8.248a2.182 2.182 0 1 0-2.944 3.217l10.469 9.597a2.181 2.181 0 0 0 1.594.572z"/><path fill="none" stroke="#000" stroke-miterlimit="50" d="M14.105 15.455c.503-.029.98-.231 1.35-.572l10.469-9.596a2.181 2.181 0 1 0-2.945-3.217l-8.996 8.247v0L4.986 2.069a2.182 2.182 0 1 0-2.944 3.217l10.469 9.597a2.181 2.181 0 0 0 1.594.572z"/></g></g></svg>