<svg xmlns="http://www.w3.org/2000/svg" width="20.33" height="14.67" viewBox="0 0 61 44"><g><g><g><g><g><path fill="#006847" d="M6.727.274A6.727 6.727 0 0 0 0 7v30.272A6.727 6.727 0 0 0 6.727 44H18.5V.274z"/></g><g><path fill="#ce1126" d="M53.817.274H42.044V44h11.773a6.727 6.727 0 0 0 6.727-6.727V7A6.727 6.727 0 0 0 53.817.274"/></g><g><path fill="#eee" d="M18.5 44h23.545V.274H18.5z"/></g><g><path fill="#a6d388" d="M38.681 22.137a8.408 8.408 0 0 1-8.409 8.409 8.409 8.409 0 0 1-8.409-8.41h-1.682c0 5.574 4.518 10.092 10.091 10.092 5.573 0 10.09-4.518 10.09-10.091z"/></g><g><g><path fill="#5c913b" d="M22.776 25.953a.838.838 0 0 0-.787-.456.823.823 0 0 0-.345.088.843.843 0 0 0-.368 1.131 10.732 10.732 0 0 0 .506.88l.014.018v.002l.007.01.001.003c.002.004.004.007.007.009v.002a.042.042 0 0 1 .007.008v.003a.032.032 0 0 0 .007.009v.003l.006.007c0 .002 0 .002.002.003l.005.007c0 .002.002.004.004.005l.003.005.003.005c.002.004.004.005.005.009l.002.001.005.005c0 .004.002.007.005.01v.004c.002.003.003.007.007.008l.001.002c.004.005.007.012.012.017l.002.001a.03.03 0 0 0 .008.012v.002c.086.13.177.254.271.382.172.23.44.346.708.336a.824.824 0 0 0 .464-.166.837.837 0 0 0 .174-1.176 8.555 8.555 0 0 1-.736-1.19"/></g><g><path fill="#5c913b" d="M21.947 23.29a8.301 8.301 0 0 1-.07-.802 7.93 7.93 0 0 1-.005-.598.841.841 0 0 0-.816-.865c-.02 0-.04 0-.06.002a.84.84 0 0 0-.805.817 10.81 10.81 0 0 0-.001.523v.022l.001.002-.001.01.001.002v.045c0 .003 0 .005.002.008l-.002.004c0 .003.002.007 0 .01l.002.01c0 .002-.002.002-.002.003l.002.007v.002l.002.01v.001c-.002.004 0 .007 0 .009V22.56l.001.006v.002l.002.005-.002.003v.005l.002.004v.047l.001.005v.019a.246.246 0 0 1 .002.033c0 .005 0 .009.002.014v.017l.001.001c.015.27.042.539.078.803a.838.838 0 0 0 .947.714.84.84 0 0 0 .718-.948"/></g><g><path fill="#5c913b" d="M30.844 30.529c-.004.002-.007.002-.01.002l-.209.013a8.555 8.555 0 0 1-1.194-.035.845.845 0 0 0-.922.753.841.841 0 0 0 .752.92l.21.019.007.001.004-.001.005.001h.003c.004 0 .007 0 .01.002h.01c.002 0 .004 0 .005.002h.004c.003-.002.006-.002.01-.002.001.002.001.002.003.002h.01a.023.023 0 0 0 .01.001l.009.002h.003a.01.01 0 0 1 .01 0h.01l.01.001c.009.002.015 0 .024 0 .254.017.511.026.772.02.012 0 .022.002.033 0h.034l.012-.001c.003.002.007.002.01.002h.025c.002-.002.005-.002.008-.002h.014c.003-.002.005-.002.008 0h.014c.003-.002.006-.002.01-.002h.003l.009.002.001-.002c.004 0 .007 0 .01.002h.002c.003 0 .005 0 .008-.002h.014l.01-.001H30.625l.003.001.01-.001h.014l.008-.002h.034l.01-.002h.008l.007-.001h.001l.007.001H30.736l.008-.001h.009c.07-.002.142-.009.213-.012a.83.83 0 0 0 .762-.885.857.857 0 0 0-.884-.795"/></g><g><path fill="#5c913b" d="M26.742 29.77a8.528 8.528 0 0 1-1.218-.69.821.821 0 0 0-.51-.147.84.84 0 0 0-.442 1.532l.002.002c.004 0 .007.003.01.005l.01.01h.002c.003.002.007.003.01.007l.01.008h.002c.447.303.921.57 1.416.799a.842.842 0 0 0 .708-1.525"/></g><g><path fill="#5c913b" d="M35.201 29.101a.838.838 0 0 0-.417.135 8.65 8.65 0 0 1-1.234.65.838.838 0 0 0-.45 1.102.843.843 0 0 0 1.099.449c.077-.035.15-.066.225-.101h.004a.033.033 0 0 0 .01-.007l.003-.001c.003 0 .003-.002.007-.004.003.002.003.002.007 0 .003 0 .003-.003.007-.003 0-.002.003-.002.003-.004l.008-.001.004-.002c.001-.003.003-.003.005-.003.003-.004.005-.004.008-.004l.005-.001a.013.013 0 0 1 .009-.004l.003-.001c.003-.002.005-.004.009-.004l.003-.001c.005-.004.005-.005.008-.005 0-.002.004-.002.004-.002a.032.032 0 0 0 .008-.005h.004c.003-.004.006-.004.01-.005a.39.39 0 0 0 .01-.005l.003-.002.008-.005.004-.001c.003 0 .007-.002.01-.005l.001-.002c.004-.002.009 0 .012-.002.004-.001.005-.005.01-.007l.004-.001c0-.002.003-.004.007-.005h.003c.003-.002.007-.005.01-.005.007-.002.01-.002.013-.004l.01-.006h.002c.004-.002.009-.004.012-.007 0 0 0-.002.002-.002a.122.122 0 0 1 .021-.01.086.086 0 0 1 .012-.005c.007-.005.017-.008.024-.013l.013-.005c.004-.002.005-.004.009-.005h.001a.102.102 0 0 1 .024-.012v-.002c.005-.001.008-.001.01-.003h.001c.014-.007.024-.012.036-.02.003-.002.007-.004.012-.004l.023-.013.012-.007h.002c.001-.002.005-.004.011-.004.002-.005.005-.006.009-.008l.013-.005c.004-.003.007-.003.01-.007l.024-.01h.002l.011-.007.002-.001c.002-.002.003-.004.007-.005h.001l.012-.007.01-.005h.004c.003-.004.006-.005.01-.007v-.002l.012-.005.001-.001.01-.005v-.002c.004 0 .005-.001.009-.003l.003-.002c.003-.001.003-.003.007-.003.003 0 .005-.004.005-.004.003 0 .005 0 .008-.003l.004-.002a.034.034 0 0 1 .008-.005l.004-.001c.003 0 .006-.004.01-.004-.002-.001 0-.001.001-.001a.027.027 0 0 1 .01-.005s0-.002.004-.002c0 0 .001-.003.005-.005 0-.002.003-.002.003-.002l.01-.005.003-.001c0-.004.004-.004.007-.005.002 0 .004 0 .005-.002l.007-.003c.002 0 .004-.002.005-.004.002-.001.004-.003.007-.003l.005-.004c.002-.001.005-.001.005-.003l.005-.005h.007s.003-.003.007-.003c0 0 .003 0 .003-.002.003-.002.003-.003.007-.003 0-.002.003-.004.007-.005l.003-.002.007-.003c.002-.004.005-.004.007-.006l.005-.003c.003.002.005 0 .008-.002.002 0 .004-.003.004-.003l.006-.003c0-.002.004-.002.004-.004l.005-.003c.001 0 .003-.004.007-.004.003-.001.003-.003.006-.005l.004-.001c.003-.002.01-.002.013-.005-.003-.002-.003-.002 0-.002l.007-.003.012-.007.003-.003c.004 0 .007-.004.012-.004v-.001c.005-.005.01-.007.018-.01l.014-.009a.15.15 0 0 1 .034-.018h.001c.106-.064.215-.13.318-.197a.84.84 0 0 0 .256-1.16.848.848 0 0 0-.747-.391"/></g><g><path fill="#5c913b" d="M39.525 21.335l-.038.001a.841.841 0 0 0-.806.838c0 .466-.042.937-.121 1.394a.84.84 0 1 0 1.658.283v-.009l.002-.003.001-.004-.001-.003.001-.003v-.002c0-.002 0-.004.002-.004v-.005l.002-.003V23.8c.003-.002.003-.005.003-.007V23.783c.035-.217.066-.436.088-.656l-.002-.001c.002-.002.002-.005.002-.005v-.002l.001-.007v-.018c0-.002.002-.004.004-.005v-.002l-.002-.005v-.003c.002-.002.002-.004.002-.006v-.006s0-.002.003-.002c0-.002-.003-.003-.003-.005v-.005c.003-.002.003-.003.003-.005v-.012c0-.007.002-.013 0-.018v-.002c0-.002.003-.003.003-.005v-.002c.02-.274.034-.551.036-.832a.842.842 0 0 0-.838-.844"/></g><g><path fill="#5c913b" d="M38.782 25.869a.842.842 0 0 0-1.144.33c-.223.406-.486.8-.778 1.165a.843.843 0 0 0 1.318 1.046c.195-.247.38-.503.555-.765.004-.012.012-.024.017-.034l.002-.002c.001-.003.005-.006.006-.01v-.001c.004-.004.004-.007.007-.012.004-.002.007-.005.007-.009l.002.002a.033.033 0 0 1 .007-.01v-.002a.018.018 0 0 0 .005-.011c.003 0 .003-.002.003-.002.003-.003.003-.007.007-.01v-.002c.003-.001.003-.005.005-.008l.001-.002.007-.01c0-.001.002-.001.002-.003.001-.004.003-.004.003-.007l.004-.003c0-.002.003-.005.003-.009h.003c0-.003.004-.005.004-.01l.002-.003.006-.007c0-.002.002-.003.002-.003.002-.004.002-.007.005-.009l.002-.005.006-.005c0-.002 0-.003.004-.005v-.007l.005-.001c.001-.004.003-.006.005-.009l.001-.003c0-.004.004-.005.006-.01 0-.002.001-.002.003-.004 0-.001.003-.003.003-.007 0-.001.004-.003.004-.005 0-.001 0-.003.003-.005 0-.001 0-.003.002-.005.003-.001.003-.005.005-.008l.001-.005c0-.002.002-.003.004-.005 0-.002.001-.003.003-.003.004-.002.004-.004.004-.006.003-.001.003-.003.003-.006 0-.002.003-.004.003-.005 0-.002.004-.005.005-.007l.005-.007v-.005c.002-.002.004-.003.004-.005l.005-.007.005-.005v-.005c.003-.003.003-.005.007-.008v-.005c.003 0 .005-.002.005-.005.001-.002.001-.004.003-.004.002-.001.002-.003.003-.005a.018.018 0 0 0 .006-.008c0-.002.003-.004.003-.005v-.004c.001-.003.001-.005.005-.008 0-.002 0-.003.003-.005l.002-.005.005-.007.003-.007.004-.005c.001-.001 0-.003.003-.005 0-.001 0-.003.004-.003l.003-.009.003-.003c0-.003.002-.005.004-.01l.003-.002c0-.001.002-.005.004-.006l.003-.004c0-.003.002-.007.003-.008 0-.002.004-.004.004-.004 0-.003.003-.006.003-.01.004-.001 0-.003 0-.003l.007-.007c.002-.002.002-.001.002-.003l.005-.009s-.002-.001 0-.001l.005-.01.003-.004c0-.003.004-.007.004-.01v-.001c.003-.004.006-.005.008-.009.002-.003.005-.007.005-.01v-.002l.007-.01.003-.001c.014-.027.027-.056.042-.08a.845.845 0 0 0-.329-1.144"/></g></g><g><path fill="#55acee" d="M35.317 27.182c0 .93-2.258 1.682-5.045 1.682s-5.045-.752-5.045-1.682c0-.93 2.258-1.682 5.045-1.682s5.045.752 5.045 1.682"/></g><g><path fill="#ffcc4d" d="M33.636 27.182c0 .93-1.13 1.682-2.523 1.682-1.394 0-2.523-.752-2.523-1.682 0-.93 1.129-1.682 2.523-1.682 1.393 0 2.523.752 2.523 1.682"/></g><g><g><path fill="#5c913b" d="M32.15 27.645a.84.84 0 0 1-.74-1.241 11.5 11.5 0 0 1 .845-1.337c-.232.01-.474.013-.721.013-.466 0-.888-.377-.888-.843 0-.462.328-.84.793-.84.014 0 .123.001.137.003.497-.002 1.009-.03 1.466-.074.266-.027.52.08.69.262.023-.018.048-.035.072-.052.168-.11.326-.2.472-.27.1-.08.22-.134.355-.159a.77.77 0 0 1 .061-.012 2.06 2.06 0 0 1 .626-.117.841.841 0 0 1 .802 1.09c-.138.447-.444.548-.986.655-.099.04-.237.106-.4.214a.848.848 0 0 1-1.007-.057.84.84 0 0 1-.004 1.034 9.465 9.465 0 0 0-.834 1.29.84.84 0 0 1-.738.44m-2.388-2.672a.774.774 0 0 1-.11-.006 11.754 11.754 0 0 1-1.776-.372.84.84 0 0 1-.566-1.046l.01-.032-.019.039a.843.843 0 0 1-1.145.323 6.943 6.943 0 0 1-1.526-1.146.841.841 0 0 1 1.19-1.189c.33.332.72.623 1.156.867.36.201.515.629.387 1.004a.841.841 0 0 1 .993-.43c.464.137.973.243 1.513.314a.842.842 0 0 1-.107 1.674"/></g><g><path fill="#5c913b" d="M25.639 21.037c-.717 0-1.643-.277-2.205-.94-.86-1.018-1.367-2.32-1.288-3.318.02-.266-.24-.481-.496-.548-.147-.04-.406-.064-.525.196a.42.42 0 0 1-.763-.353c.262-.57.85-.824 1.498-.657.602.156 1.18.698 1.123 1.428-.06.777.379 1.865 1.094 2.709.375.444 1.029.622 1.473.64.361.02.545-.063.583-.1-.096-.224-1.34-.878-1.871-1.157-.453-.24-.587-.564-.62-.794-.115-.765.672-1.54 1.432-2.287.267-.264.521-.513.658-.698.156-.207.13-.345.1-.43-.117-.315-.618-.627-1.224-.761-.56-.125-.938-.395-1.123-.804-.242-.54-.115-1.246.393-2.161a.42.42 0 0 1 .737.408c-.48.861-.432 1.252-.363 1.408.07.155.25.264.54.328.711.158 1.565.58 1.828 1.29.151.405.075.84-.214 1.226-.177.234-.452.504-.742.792-.435.427-1.242 1.223-1.192 1.566.01.069.104.131.18.172 1.263.664 2.102 1.142 2.274 1.728a.767.767 0 0 1-.071.604c-.163.284-.503.46-.984.503-.074.007-.152.01-.232.01"/></g></g><g><g><path fill="#ffcc4d" d="M33.636 22.137c0 .93-.377 1.682-.841 1.682-.464 0-.841-.752-.841-1.682 0-.928.377-1.682.84-1.682.465 0 .842.754.842 1.682"/></g><g><path fill="#ffcc4d" d="M29.08 20.77c0 .484-.58.876-1.297.876-.715 0-1.297-.392-1.297-.876 0-.485.582-.877 1.297-.877.716 0 1.297.392 1.297.877"/></g><g><path fill="#ffcc4d" d="M27.093 12.99c.085.356-.381.773-1.04.93-.658.156-1.262-.007-1.346-.364-.086-.358.38-.775 1.04-.931.659-.157 1.26.007 1.346.365"/></g></g><g><path fill="#c1694f" d="M37.895 22.07c.152.117.41-1.226.37-1.645 0-.029-.05-.918.14-1.554.116-.215.123-1.823-.055-2.244.14-.013.309-.057.33-.23-.652.242-.805-1.374-1.432-2.3-.609-.93-1.364-1.472-2.153-2.037.059-.158.153-.306.273-.454-.967.484-2.474-1.27-4.701-1.139-.5.049-.735.08-.864.385-.416.034-.838.128-.838.675 0 .13.12.37.385.371.364.106.66.024.907.532l.065.524s-.326-.413-.504-.48l.11-.224c-.167-.096-.467-.019-.467-.019s-.645-.302-1.165-.222l-.101-.42c-.09.257-.294.244-.323.49-.057-.177-.133-.394-.188-.567-.184.248-.128.516-.195.777-.071.058-.216.062-.253-.105-.018-.205-.043-.223-.043-.467-.132.229-.29.341-.342.738l-.14-.439c.006.516-.438.826-.86 1.19-.118.218.02.22.028.332l.222.111.399-.028c.064.082.012.089.183.143.464.127 1.044-.428 1.497.447-.207.175-.417.583-.352.66.083 0-.168.118.172.01-.355.344-.594.796-.594.821-.04.098.143-.011.104.164l.085-.01c-.808.87-.027 1.807-.113 2.31.134.219.15-.003.318-.027.141.62.548.994.797 1.484l-.523.007c.012.232.222.452.388.655l-.351.111c-.25.13-.417.266-.594.461-.116.285.56.352.887.4l-.012.342c.51.049 1.098-.103 1.098-.131l.128-.098.287.158c.096 0 .246-.383.177-.679.185.22.362.575.547.797l.173-.023c.158.25.375.5.535.75l.175.067c.102-.034.19-.047.245-.247l.08.14.28-.19.197-.04.146.24c.084-.034.17-.22.173-.418.088.173.111.16.177.204l.13-.271.698.653.528.03c.19.128.704.207.792.001.424.182.923-.023.898-.225.39.155.99.05.99.025.073-.01.258-.191.083-.328-1.29-.898-3.204-2.384-3.94-2.743 0-.265-.2-1.222-.416-1.485l.173-.292c.503.469.687.422.954.497.286.228.385.572.671.887l.257.047c-.178-.45-.398-.883-.931-1.468.276.138.731.506 1.039.772.202.338.26.608.446 1.032.134.086.272.399.254.138-.032-.49-.377-1.265-.377-1.32.55.434.543 1.11.708 1.522.14.208.21.488.27.422l-.16-1.271-.093-.466c.405.233.55 1.125.74 2.194 0 .17.069.357.058.466.086.108.187.406.186.229 0 0 0-1.74-.12-2.136-.03-.214.05-.562.05-.562.148.722.307 1.504.458 2.224v.53l.22.221c.044-.435.093-.87.137-1.305l-.165-1.555v-.444c-.004-.157.143-.128.234.05.021.38.021.68.038 1.06.066.433.11.751.143 1.305.018.452.037 1.525.133 1.507"/></g></g></g></g></g></svg>