<svg xmlns="http://www.w3.org/2000/svg" width="124" height="154" viewBox="0 0 124 154"><g><g><path fill="#ffce07" d="M108.042 77.828H16.578L3.716 94.07v57h117.188v-57z"/></g><g><path fill="#ffce07" d="M97.465 53.219H27.15c-5.825 0-10.546 4.722-10.546 10.545v14.064h91.407V63.764c0-5.823-4.722-10.545-10.547-10.545z"/></g><g><path fill="#ffddcf" d="M84.282 22.75v5.61a10.91 10.91 0 0 0 3.587 8.086 15.007 15.007 0 0 1 4.936 11.125v5.648H79.302v8.106a4.785 4.785 0 0 1-4.785 4.784H35.454a4.785 4.785 0 0 1-4.785-4.784V50.572c0-4.579 2.091-8.908 5.678-11.754l2.792-2.217a10.905 10.905 0 0 0 4.128-8.544V22.75z"/></g><g><path fill="#4ac2e2" d="M36.993-.07h51.563v15.82H36.993z"/></g><g><path fill="#4ac2e2" d="M102.74 132.461H21.88c0 7.12 5.771 12.89 12.89 12.89H89.85c7.12 0 12.89-5.77 12.89-12.89z"/></g><g><path fill="#fff" d="M62.31 92.58c-18.037 0-32.66 14.622-32.66 32.66v1.22h65.32v-1.22c0-18.037-14.623-32.66-32.66-32.66z"/></g><g><path d="M105.082 74.899H19.535V63.765c0-4.2 3.416-7.616 7.616-7.616h.588v5.176c0 .803.124 1.578.353 2.307a2.925 2.925 0 0 0-1.372 2.477 2.93 2.93 0 0 0 2.93 2.93h65.32a2.93 2.93 0 1 0 0-5.86H82.005a7.69 7.69 0 0 0 .227-1.854v-5.176h15.233c4.2 0 7.617 3.417 7.617 7.616zM33.599 50.57a12.01 12.01 0 0 1 4.568-9.459l2.794-2.217a13.764 13.764 0 0 0 5.236-10.838V25.68h35.156v2.68c0 3.901 1.658 7.64 4.55 10.258a12.097 12.097 0 0 1 3.972 8.953v2.718H79.302a2.93 2.93 0 0 0-2.93 2.93v8.106a1.857 1.857 0 0 1-1.855 1.855h-4.493V56.05a2.93 2.93 0 1 0-5.86 0v7.129h-6.673V56.05a2.93 2.93 0 1 0-5.86 0v7.129h-6.674V56.05a2.93 2.93 0 1 0-5.86 0v7.129h-3.643a1.857 1.857 0 0 1-1.855-1.855zm7.324-40.712h45.703v9.961H40.923zm79.98 120.704a2.93 2.93 0 0 0 2.93-2.93V94.069a2.93 2.93 0 0 0-.633-1.818l-12.259-15.48V63.764c0-7.43-6.046-13.475-13.476-13.475h-1.73v-2.72c0-5.055-2.15-9.9-5.899-13.294a7.994 7.994 0 0 1-2.624-5.915v-2.68h2.344a2.93 2.93 0 0 0 2.93-2.93V6.93A2.93 2.93 0 0 0 89.555 4H37.993a2.93 2.93 0 0 0-2.93 2.93v15.82a2.93 2.93 0 0 0 2.93 2.93h2.344v2.377c0 2.449-1.1 4.727-3.019 6.25l-2.792 2.216a17.83 17.83 0 0 0-6.779 13.766h-.596c-7.43 0-13.475 6.045-13.475 13.475v13.01L1.419 92.251a2.93 2.93 0 0 0-.633 1.819v57a2.93 2.93 0 0 0 2.93 2.93h117.187a2.93 2.93 0 1 0 0-5.86H6.646V95.09l11.349-14.332h88.63l11.349 14.331v32.544a2.93 2.93 0 0 0 2.93 2.93z"/></g><g><path d="M32.628 123.531c.888-15.601 13.861-28.02 29.682-28.02 15.82 0 28.793 12.419 29.681 28.02zm57.22 12.89H34.772c-4.474 0-8.267-2.963-9.522-7.03H99.37c-1.254 4.067-5.048 7.03-9.521 7.03zM62.31 85.99a2.93 2.93 0 0 0-2.93 2.93v.852c-17.697 1.45-31.77 15.9-32.618 33.759H21.88a2.93 2.93 0 0 0-2.93 2.93c0 8.723 7.098 15.82 15.82 15.82H89.85c8.722 0 15.82-7.097 15.82-15.82a2.93 2.93 0 0 0-2.93-2.93h-4.882c-.848-17.858-14.92-32.31-32.618-33.759v-.852a2.93 2.93 0 0 0-2.93-2.93z"/></g><g><path d="M120.903 136.422c-.77 0-1.527.313-2.071.858a2.954 2.954 0 0 0-.858 2.072c0 .77.313 1.526.858 2.071a2.953 2.953 0 0 0 2.071.859c.77 0 1.527-.314 2.071-.859a2.954 2.954 0 0 0 .859-2.071c0-.77-.314-1.527-.859-2.072a2.953 2.953 0 0 0-2.07-.858z"/></g></g></svg>