<svg xmlns="http://www.w3.org/2000/svg" width="118" height="151" viewBox="0 0 118 151"><g><g><path fill="#e5ecec" d="M59.098 31.287c-18.77 0-33.985 15.216-33.985 33.984v2.598h67.97V65.27c0-18.768-15.216-33.984-33.985-33.984z"/></g><g><path fill="#becfcf" d="M96.861 67.869H21.334v2.344c0 6.472 5.246 11.718 11.72 11.718h52.088c6.473 0 11.719-5.246 11.719-11.718z"/></g><g><path d="M70.853 64.939a2.93 2.93 0 1 0 0 5.86h23.059c-.302 4.574-4.12 8.203-8.77 8.203H33.053c-4.65 0-8.467-3.63-8.77-8.204h23.134a2.93 2.93 0 0 0 0-5.859h-19.37c.179-16.97 14.038-30.723 31.05-30.723 17.013 0 30.872 13.753 31.05 30.723zM59.098 24.697a2.93 2.93 0 0 0-2.93 2.93v.847c-18.882 1.49-33.81 17.247-33.98 36.465h-.853a2.93 2.93 0 0 0-2.93 2.93v2.344c0 8.077 6.571 14.648 14.648 14.648h52.09c8.077 0 14.648-6.571 14.648-14.648v-2.344a2.93 2.93 0 0 0-2.93-2.93h-.854c-.17-19.218-15.099-34.975-33.98-36.465v-.847a2.93 2.93 0 0 0-2.929-2.93z"/></g><g><path d="M56.206 67.868c0 .773.311 1.526.858 2.071a2.94 2.94 0 0 0 2.072.858c.77 0 1.526-.31 2.071-.858a2.947 2.947 0 0 0 .858-2.071c0-.77-.313-1.527-.858-2.072a2.951 2.951 0 0 0-2.071-.858 2.95 2.95 0 0 0-2.072.858 2.943 2.943 0 0 0-.858 2.072z"/></g><g><path fill="#fff" d="M59.098 31.287c-18.77 0-33.985 15.216-33.985 33.984v2.598h67.97V65.27c0-18.768-15.216-33.984-33.985-33.984z"/></g><g><path fill="#4ac2e2" d="M96.861 72.869H21.334v2.344c0 6.472 5.246 11.718 11.72 11.718h52.088c6.473 0 11.719-5.246 11.719-11.718z"/></g><g><path d="M70.853 64.939a2.93 2.93 0 1 0 0 5.86h23.059c-.302 4.574-4.12 8.203-8.77 8.203H33.053c-4.65 0-8.467-3.63-8.77-8.204h23.134a2.93 2.93 0 0 0 0-5.859h-19.37c.179-16.97 14.038-30.723 31.05-30.723 17.013 0 30.872 13.753 31.05 30.723zM59.098 24.697a2.93 2.93 0 0 0-2.93 2.93v.847c-18.882 1.49-33.81 17.247-33.98 36.465h-.853a2.93 2.93 0 0 0-2.93 2.93v2.344c0 8.077 6.571 14.648 14.648 14.648h52.09c8.077 0 14.648-6.571 14.648-14.648v-2.344a2.93 2.93 0 0 0-2.93-2.93h-.854c-.17-19.218-15.099-34.975-33.98-36.465v-.847a2.93 2.93 0 0 0-2.929-2.93z"/></g><g><path d="M56.206 67.868c0 .773.311 1.526.858 2.071a2.94 2.94 0 0 0 2.072.858c.77 0 1.526-.31 2.071-.858a2.947 2.947 0 0 0 .858-2.071c0-.77-.313-1.527-.858-2.072a2.951 2.951 0 0 0-2.071-.858 2.95 2.95 0 0 0-2.072.858 2.943 2.943 0 0 0-.858 2.072z"/></g><g><path fill="#231f20" d="M22.564 96.923l-3.918-4.74c-7.733-9.361-11.992-21.216-11.992-33.38 0-14.035 5.474-27.223 15.412-37.135 9.938-9.91 23.142-15.345 37.18-15.309 13.887.04 27.022 5.601 36.987 15.663 9.967 10.065 15.405 23.26 15.307 37.153-.083 12.07-4.153 23.39-11.77 32.734l-3.893 4.78h.166l-36.945 47.356-36.78-47.12zM59.098 150.5a4.88 4.88 0 0 0 3.869-1.888l41.388-53.05.073-.094c.449-.554.887-1.116 1.314-1.686l2.3-2.952h-.228a58.477 58.477 0 0 0 9.586-31.614c.107-15.463-5.932-30.137-17.004-41.318C89.328 6.722 74.72.543 59.263.5h-.166C43.553.5 28.938 6.54 17.929 17.518 6.879 28.537.795 43.2.795 58.803a58.44 58.44 0 0 0 9.807 32.367l-.208.001 44.836 57.442a4.876 4.876 0 0 0 3.868 1.887z"/></g></g></svg>