<svg xmlns="http://www.w3.org/2000/svg" width="174" height="127" viewBox="0 0 174 127"><g><g><g><path fill="#ffce07" d="M134.068 12.051h-19.27a4.887 4.887 0 0 0-4.886 4.886v5.898a4.887 4.887 0 0 0 4.886 4.886h19.27a4.887 4.887 0 0 0 4.887-4.886v-5.898a4.887 4.887 0 0 0-4.887-4.886z"/></g><g><path fill="#ffce07" d="M163.111 107.687c0 8.653-7.016 15.669-15.669 15.669s-15.669-7.016-15.669-15.67 7.016-15.668 15.669-15.668 15.67 7.014 15.67 15.669z"/></g><g><path fill="#fff" d="M170.335 97.23h-46.264a12.837 12.837 0 0 1-11.185 6.54H9.727v-2.468c0-25.673 20.813-46.486 46.487-46.486H79.37a6.58 6.58 0 0 1 6.58 6.58v29.316h17.372a16.206 16.206 0 0 0 16.204-16.188l.047-46.804h11.589l9.03 40.8h1.431c15.858 0 28.713 12.854 28.713 28.71z"/></g><g><path fill="#ffce07" d="M62.568 107.687c0 8.653-7.016 15.669-15.669 15.669s-15.669-7.016-15.669-15.67 7.016-15.668 15.67-15.668c8.652 0 15.668 7.014 15.668 15.669z"/></g><g><path fill="#ffce07" d="M71.065 103.77c0-13.347-10.819-24.167-24.166-24.167a24.06 24.06 0 0 0-14.91 5.148l-.004.002c-5.634 4.425-9.251 11.298-9.251 19.017z"/></g><g><path d="M77.758 120.082c-.86 0-1.701.35-2.308.956a3.291 3.291 0 0 0-.957 2.308c0 .858.35 1.7.957 2.308a3.29 3.29 0 0 0 2.308.956c.858 0 1.7-.35 2.308-.956a3.284 3.284 0 0 0 .956-2.308 3.29 3.29 0 0 0-.956-2.308 3.294 3.294 0 0 0-2.308-.956z"/></g><g><g><g><path fill="#4ac2e2" d="M27.416 3.886h21.058a6.528 6.528 0 0 1 6.528 6.529v37.867a6.53 6.53 0 0 1-6.528 6.529H6.529A6.53 6.53 0 0 1 0 48.28v-16.98C0 16.16 12.275 3.886 27.416 3.886z"/></g></g><g><path d="M129.607 93.966l12.448-22.17c12.711.233 23.178 9.828 24.764 22.17zm30.24 13.72c0 6.799-5.497 12.334-12.279 12.402-.042-.001-.084-.007-.126-.007h-.376c-6.667-.2-12.029-5.68-12.029-12.394 0-2.594.809-5.1 2.298-7.192h20.214a12.385 12.385 0 0 1 2.298 7.192zm-45.049-83.23a1.624 1.624 0 0 1-1.622-1.623v-5.896c0-.894.728-1.622 1.622-1.622h19.27c.894 0 1.622.728 1.622 1.622v5.896c0 .895-.728 1.622-1.622 1.622zm-17.3-1.96a1.96 1.96 0 0 1 1.958-1.958h7.192v2.295c0 .556.056 1.098.161 1.622h-7.353a1.96 1.96 0 0 1-1.959-1.958zm47.985-5.995h3.265v6.529h-3.265a3.267 3.267 0 0 1-3.264-3.265c0-1.799 1.464-3.264 3.264-3.264zM26.25 100.505c.809-5.186 3.532-9.87 7.74-13.175.01-.006.018-.015.029-.021 3.705-2.905 8.16-4.442 12.881-4.442 10.415 0 19.075 7.658 20.647 17.638zm33.055 7.182c0 6.798-5.497 12.333-12.279 12.4-.042 0-.084-.006-.126-.006h-.376c-6.667-.2-12.029-5.68-12.029-12.394 0-.223-.022-.443-.065-.653h24.94c-.042.21-.065.43-.065.653zM24.096 58.075h7.47a49.717 49.717 0 0 0-4.539 2.931zM12.95 31.3c0-.201.01-.401.015-.603h35.72a3.264 3.264 0 1 0 0-6.528H14.027c3.05-9.847 12.24-17.019 23.075-17.019H58.16c1.8 0 3.264 1.464 3.264 3.265v37.867c0 1.799-1.464 3.264-3.264 3.264H16.213a3.268 3.268 0 0 1-3.263-3.264zm58.268 13.717h11.915c1.799 0 3.264 1.464 3.264 3.265a3.27 3.27 0 0 1-3.264 3.264H71.218a3.268 3.268 0 0 1-3.265-3.264c0-1.8 1.464-3.265 3.265-3.265zm71.558 20.26l-7.607-34.37a8.148 8.148 0 0 0 5.138-2.834 9.736 9.736 0 0 0 5.177 1.486h6.528a3.264 3.264 0 0 0 3.265-3.265V13.237a3.264 3.264 0 0 0-3.265-3.265h-6.528c-1.956 0-3.78.58-5.311 1.573a8.132 8.132 0 0 0-6.104-2.758h-19.27c-3.463 0-6.426 2.171-7.606 5.223h-7.737c-4.68 0-8.488 3.807-8.488 8.487s3.808 8.487 8.488 8.487h16.803v6.579a3.264 3.264 0 1 0 6.528 0v-6.579h5.713l8.194 37.024-15.508 27.623a9.588 9.588 0 0 1-8.342 4.874H74.129c-1.621-13.591-13.21-24.166-27.23-24.166-6.203 0-12.056 2.02-16.926 5.844l-.02.015c-5.797 4.56-9.442 11.104-10.291 18.307h-6.705c.426-23.467 19.65-42.426 43.215-42.426H79.33a3.32 3.32 0 0 1 3.315 3.316v29.317a3.264 3.264 0 0 0 3.265 3.265h17.37a19.472 19.472 0 0 0 19.469-19.449l.016-10.845a3.265 3.265 0 0 0-3.26-3.27h-.004a3.265 3.265 0 0 0-3.265 3.26l-.016 10.847a12.964 12.964 0 0 1-1.613 6.245 12.945 12.945 0 0 1-11.327 6.682H89.173V61.394c0-1.672-.42-3.248-1.16-4.629 2.934-1.694 4.913-4.862 4.913-8.485 0-5.4-4.394-9.793-9.793-9.793H71.218a9.747 9.747 0 0 0-3.265.561V10.413c0-5.4-4.394-9.793-9.793-9.793H37.101C21.835.62 9.14 11.83 6.806 26.447a3.264 3.264 0 0 0-.152.985c0 .02.003.04.003.058a30.828 30.828 0 0 0-.236 3.81v16.982c0 4.903 3.623 8.975 8.332 9.683l7.229 7.229C12.404 74.268 6.42 87.098 6.42 101.302v2.468a3.264 3.264 0 0 0 3.264 3.264h18.346c-.042.21-.065.43-.065.653 0 4.737 1.753 9.071 4.64 12.394H9.686a3.265 3.265 0 0 0 0 6.53h36.836c.126.003.251.01.377.01 10.44 0 18.934-8.494 18.934-18.934 0-.223-.023-.443-.065-.653h47.076c5.14 0 9.943-2.464 12.954-6.539h4.134a18.91 18.91 0 0 0-1.423 7.192c0 4.737 1.753 9.071 4.64 12.394H90.815a3.265 3.265 0 0 0 0 6.53h56.25c.126.003.251.01.377.01 10.44 0 18.934-8.494 18.934-18.934 0-2.492-.494-4.93-1.423-7.192h5.34a3.264 3.264 0 0 0 3.264-3.264c0-17.231-13.701-31.323-30.78-31.954z"/></g></g><g><path d="M119.523 53.885a3.264 3.264 0 1 0 0-6.529h-.011a3.26 3.26 0 0 0-3.26 3.264 3.27 3.27 0 0 0 3.27 3.265z"/></g></g></g></svg>